<?xml version="1.0" encoding="UTF-8"?>
<svg version="1.1" viewBox="0 0 539 266" xmlns="http://www.w3.org/2000/svg">
<title>Blink-182 fansite</title>
<g fill="none" fill-rule="evenodd">
<g fill="#ffffff">
<path d="m34.929 208.75c-1.6569 0-0.9798-5.7775-0.7444-7.1168 0.1827-1.0371 0.2261-1.6995 0.3996-2.7585l0.3268-5.74c-0.4373-3.7381-0.3581-6.3853-1.0235-11.177-0.2695-1.9404-0.2729-3.5877-0.577-5.5201l-2.0694-16.436c-0.2395-1.8143-0.5302-3.6629-0.683-5.41-0.4055-4.6242 0.8048-3.7574 5.0697-6.5263 2.8828-1.8716 9.2961-4.4808 12.676-5.4384 6.5328-1.8505 9.9778-2.0627 16.76-0.9258 2.0723 0.3477 3.7119 0.7507 4.5563 2.5273 1.288 2.7109-0.8751 14.05-2.7055 17.922l-1.8211 3.5502c-0.2282 0.4081-0.3565 0.7365-0.6169 1.1733-2.4706 4.1406-5.2396 9.5322-7.8676 13.596-3.5393 5.4734-11 16.07-14.844 20.865l-3.1753 3.9594c-1.0782 1.0984-2.5702 3.4547-3.6616 3.4547zm102.28-172.9c-1.8428 0-4.0444-3.422-5.1861-4.8196-0.3521-0.4301-0.2713-0.4536-0.66-0.9019l-4.4791-5.5527c-0.4344-0.4823-0.4208-0.5294-0.7824-1.002-0.2718-0.3557-0.4603-0.4711-0.7323-0.8268l-8.228-10.277c-0.5472-0.7208-2.4821-3.2034-3.096-3.5882-4.572-2.8659-13.334 1.4723-13.334 5.6672 0 2.2051 1.5302 2.2029 1.5302 4.5322 0 1.924-1.8869 2.6231-0.435 5.4357l5.3312 8.9752c0.2545 0.3627 0.5003 0.7175 0.7465 1.0382 0.301 0.3918 0.5465 0.5454 0.8557 0.926 0.3733 0.4585 0.3268 0.5452 0.7628 1.0218l1.8601 1.9241c3.0256 3.745 5.6528 7.3587 9.1799 10.649 2.2618 2.1095 5.4998 2.8768 1.9693 6.4554l-2.0769 2.379c-1.0777 1.1238-2.4812 1.8092-3.3807 3.0666-0.205 0.2858-0.6077 1.2504-0.6077 1.6358 0 2.0595 3.9481 7.6111 5.4636 9.7444 0.9541 1.3433 2.6686 2.4922 4.5899 2.4922 2.8675 0 4.5637-1.7029 6.0616-3.2328 0.999-1.0207 4.1895-4.0188 5.3036-4.0188 0.8549 0 1.0666 0.1357 1.6952 0.7349l5.341 5.5658c0.2994 0.4695 0.5382 0.7711 0.8291 1.1798 2.3224 3.2606 4.0472 2.3099 5.6115 5.2853 3.5057 6.6706 11.49 9.7749 9.4305 17.331-0.3239 1.1881-0.3389 2.1604-0.3895 3.4477l-3.0601 36.483c-0.0398 0.9782-0.1606 0.7199-0.2243 1.5796l-0.2267 5.4304c-6e-3 2.7119-0.2158 4.7436-0.2119 7.2583 5e-3 2.7328-0.4368 4.5145-0.4368 7.2511l0.2184 19.941c8e-4 2.0207 0.0114 3.6153-1.0452 4.5812-1.8624 1.7027-15.028 2.9429-18.602 3.373-4.5857 0.5524-3.6621-2.1141-3.0659-5.2184 1.0483-5.4547 2.7352-10.54 4.0042-16.016 0.3087-1.3323 0.2924-1.4811 1.2253-2.129l0.4332 2.4968c0.0356 1.1655 0.0433 1.7939 0.6595 2.2618l0.7385-1.9538c0.7883-2.7869 1.4068-6.9152 1.4561-9.8201 0.1229-7.3041-0.4117-14.843 0.5955-22.043l0.7156-8.0955c0.0353-2.1125 0.2124-3.4204 0.2098-5.447l0.2218-5.4349c-0.0111-2.8289-0.2127-5.7903-3e-3 -8.6136 0.072-0.9603 0.224-1.4078 0.2184-2.7198-0.0406-9.5739 2.4037-15.864 2.4037-20.394 0-1.6756-0.3857-3.0703-1.1453-4.0244-2.912-3.6594-7.8692 0.0134-11.06 1.1136-1.5036 0.5184-2.405 0.4009-3.4886 1.5946-1.3457 1.4838-0.2037 2.8075-0.9737 4.4286-0.8302 1.7479-1.7687 1.0812-3.2189 1.8748-2.5715 1.4062-2.8025 4.8001-2.8353 7.7101l-0.713 9.9111c-0.3688 2.5097-0.4318 8.0894-0.7354 9.8876-0.2772 1.6377-0.5261 14.459-0.5261 15.543l-5e-4 15.636c-6e-3 1.3824 0.183 1.8826 0.2267 2.9379 0.128 3.1281-0.1394 6.3925-0.0153 9.5322 0.0806 2.0177 0.6629 3.6741 0.6601 5.6605-2e-3 1.2921 0.2307 1.5617 0.2251 2.9392-0.016 3.9605-0.2688 11.259-0.6487 15.214-0.2246 2.3338 1.6156 4.8113-2.2068 5.6252-1.4719 0.3137-3.0674 0.58-4.4138 0.862-2.263 0.474-8.0506 1.9584-10.14 1.1078-1.7406-0.7092-1.8268-2.6033-1.8268-4.4508 0-1.8384 1.3733-4.9601 1.8413-7.1548 0.5834-2.7331 0.6727-5.2542 1.1303-8.119 0.7076-4.4275 1.4161-13.124 1.3991-17.131-8e-3 -1.7284 0.2238-2.522 0.2194-4.3044-4e-3 -1.3406-0.1223-3.4916 0.0181-4.7391 0.35-3.1008 0.5735-12.182 0.6285-15.438 0.0191-1.1313 0.2171-1.1161 0.2357-2.2477 0.0256-1.4936-0.1131-3.0184 0.1216-4.4066l0.7351-19.858c0.0191-1.1318 0.2176-1.116 0.2365-2.2476 0.1027-6.1195 0.6249-11.858 0.6402-17.918l0.225-4.2986c-2e-3 -1.8616 0.2269-2.7676 0.2192-4.5313-0.0139-3.2138 0.2282-5.7371 0.2148-9.0678-6e-3 -1.5167 0.2227-2.5343 0.2214-4.3026-7e-4 -1.4535-0.103-3.358 1e-3 -4.7572 0.2666-3.5791 0.2178-5.5899 0.2178-9.2916 0-3.4969-2.6104-3.6827-4.8092-5.2109-6.6391-4.6143-7.2086-3.202-14.077-1.4541-5.1177 1.3021-1.1288 6.6179-4.581 9.0729-1.0813 0.769-2.2504 0.4312-3.5677 1.0593-1.2978 0.6188-1.534 0.9817-2.1055 2.3488-0.7579 1.8119-0.8279 10.716-0.5331 12.714 0.2272 1.5381-0.017 3.6139 0.2187 5.2114 0.5846 3.9608-0.0499 15.683-0.0499 21.126l-0.222 5.2085c0.0114 2.8121-0.0826 24.428-0.4677 26.48-0.4305 2.2979-4.1337 1.0162-8.2684 0.713l-4.9794-0.2762c-2.5981-0.4138-11.797 0.5096-14.823-0.0399-3.1683-0.5762-8.9244 0.4451-11.921 1.4188-3.4324 1.1152-6.3152 2.6405-9.4407 4.2613-1.3484 0.6993-2.6254 1.4361-4.0787 1.4361-1.0609-2.0787-1.0077-4.871-1.3629-7.4248-0.1683-1.2148-0.2393-2.6595-0.4368-4.0788-0.539-3.8799-0.7437-7.9598-1.3131-12.008-0.7406-5.2607-1.1435-10.654-2.0057-15.822-0.46-2.7545-0.9429-5.1012-1.422-7.5894-0.4652-2.4175-1.1337-4.9665-1.7618-7.2374-0.3237-1.1699-0.7535-2.1668-1.4744-3.0034-3.3797-3.9225-7.5692 0.9667-11.423 0.9667-0.9291 0-1.4747-0.6798-2.8416-0.6798-1.1104 0-1.8293 1.0887-2.462 1.7524-2.0821 2.1837-1.4486 3.4515-0.904 6.0433 1.0534 5.0136 0.9032 9.9703 1.707 14.999 0.3348 2.0964 0.3232 4.0373 0.618 6.1572 0.7013 5.0493 2.0847 20.4 2.3573 24.295l0.3027 2.8584c0.4156 2.5198 0.3999 5.259 0.7352 7.6217l0.706 7.6526c0.0668 1.9564 0.4899 4.1674 0.6554 6.1182 0.0785 0.9204 0.2798 2.0081 0.3846 2.7735l2.0467 14.873c1.2225 9.5771 3.3395 18.993 4.8059 28.554 1.1608 7.5696 2.7197 14.995 4.039 22.551 2.3087 13.22 4.5462 26.489 7.0653 39.581 0.1949 1.0136 0.3418 1.7533 0.5444 2.8346l0.7839 2.5859c0.8488-0.6448 0.3338-1.1937 0.2285-2.2757-0.3467-3.565-1.1324-7.7497-1.1027-11.32 0.0216-2.5698-0.3232-3.2079-0.0189-5.9108 0.3552-3.15-0.1247-15.692-0.3993-18.128-0.2783-2.4657 0.0563-4.7216 1.5624-6.272 1.6603-1.7097 2.7347-2.1152 3.8829 2.4384 0.3069 1.2177 0.6249 3.4812 1.9667 3.8524 0.5815-2.2739-0.9211-4.1495 0.7857-9.3815 0.76-2.3295 2.8477-4.2142 5.7711-4.2142 0.3342 1.4894-0.8769 2.1408-2.5037 3.976-0.4607 0.5203-0.4987 1.0925-0.7749 1.689 3.1092 0 4.5031-1.6296 7.1425-2.7914 4.387-1.9294 17.162-8.4437 21.089-11.671 0.2582-0.2122 0.3209-0.318 0.5803-0.5313 2.1128-1.7359 4.086-3.6096 5.8808-5.6862 0.7886-0.9124 1.7991-1.6941 2.4992-2.6199 0.4796-0.6335 0.533-0.7553 1.1079-1.3443l7.3188-8.0476c0.683-0.706 0.7798-0.6282 1.5883-1.0724 0.867 1.874 1.2496 9.534 1.7225 12.49 0.7372 4.6063 0.5126 7.5835-1.5062 11.754-0.6515 1.3452-1.9647 5.3156-1.9647 7.2533 0 1.9591 0.799 2.9785 2.1051 3.7091 1.4453 0.8083 3.5521 0.4933 4.6701 1.0494-0.6066 1.1886-0.8095 0.6212-1.8691 1.2344-0.6384 0.3701-1.2197 0.9747-1.4094 1.7113 0.9099 0.2197 1.0514 0.5358 2.1902 0.6752 0.826 0.1009 1.6281 0.1684 2.5282 0.3244 1.4548 0.2534 4.0957 0.3605 5.1659 0.1857 1.6709-0.2724 2.341 0.0236 5.142-0.5609 4.5754-0.9552 9.2277-2.2667 13.741-3.6546 4.4404-1.3658 8.5253-2.8959 12.689-4.7447 1.4223-0.6319 2.5751-1.1142 3.9285-1.8186 5.7977-3.0179 11.891-5.4103 17.7-8.3867l3.9394-1.8079c1.1938-0.5979 0.779-0.6056 2.4752-0.6056 0.5689 2.5321 0.2186 14.011 0.2186 17.448 0 7.8715-1.1123 14.696-2.1324 22.036-0.46 3.308-1.5844 11.748-0.9272 14.674 1.8296-1.2702 1.7992-4.3571 3.8764-6.8579 0.2648-0.3196 0.3771-0.5497 0.6267-0.9362 1.1768-1.8237 1.7259-4.4655 2.7042-6.4867 0.5462-1.1286 0.7656-0.9301 1.3673-1.7546 0.5516-0.7559 0.9027-3.7834 1.1727-4.9026 0.4445-1.8454 0.8761-3.163 1.2372-5.0618 0.1105-0.5827 0.3583-2.0472 0.3875-2.7709 0.0503-1.2608-0.1296-1.9845 0.1732-2.993 1.7979-5.9894 2.2757-9.591 2.6585-16.051 0.3361-5.6656 3.2183-26.971 4.5916-33.082l0.2197 7.2522c-0.1885 2.5238-0.0134 5.1769 2e-4 7.705 8e-3 1.5461-0.3696 2.2583-0.2374 3.6393 0.0988 1.0299-0.1947 0.3983 0.4548 0.891 0.5415-2.4101 1.993-2.1612 1.97-7.7005l0.6299-12.716c0.1543-1.5009-0.246-1.9144 1.1151-2.2431 0.6846 2.963 5e-3 6.9768-0.2176 9.9714-0.0457 0.6148 7e-3 1.4102 6e-3 2.0455-4e-3 2.2356-0.4636 4.9088-0.4448 7.2431 0.0393 5.0027-2.1358 7.8078 1e-3 9.2913 0.7483-3.3286 1.3668-9.8841 1.5291-13.597l0.4342-4.9882c0.0823-2.2471 0.571-4.7246 0.6554-7.0247 0.1368-3.7282 1.9773-18.106 2.7207-22.105l0.7806-4.8558c0.2065-0.964 0.1574-0.7405 0.8735-1.1334 1.3864 0.9624 2.2785 4.864 2.9675 6.6671 0.4933 1.2905 0.9597 2.2556 1.4347 3.498l4.2708 10.527c1.0209 2.4837 2.2545 5.0429 2.2545 8.3123 0 4.2159-0.4551 1.8622 0.9029 6.0888l1.3622 4.2522c0.2991 0.7341 0.4303 0.6509 0.795 1.2156h2.1854c0.8691 1.3457 1.3213 2.5011 1.7485 4.3052 0.1929 0.815 0.3828 1.5986 0.6232 2.2998 1.3061 3.8125 4.0139 7.4995 3.5284 14.015-0.2324 3.1179-0.2241 2.9445 0.438 5.8923 2.1513-0.5198 1.2734-3.4432 2.841-4.5322 1.7277 3.3856-0.0836 4.8638-1.0018 9.6114l-1.9693 10.422c-0.7501 3.5218-1.3407 6.9626-2.0015 10.388l-1.4931 7.9689c-0.6329 3.2178-0.0929 2.5094 1.008 1.9516 1.284-0.6501 1.832-0.3998 2.8374-1.8164 1.5981-2.2517 2.2241-3.2004 3.2099-5.7363l1.6252-4.4329c2.1417-5.9983 4.3975-12.043 6.3363-18.13 2.1662-6.8018 4.9022-13.458 7.104-20.279l4.0148-14.193c0.2093-0.8746 0.343-1.6326 0.7219-2.4234 0.7143-1.4902 1.799-1.8965 3.214-0.9777 1.5003 0.9734 2.6322 2.3895 3.9892 3.5684l3.0565 2.7221c1.2445 1.3187 2.7042 2.321 3.9342 3.6257 0.7285 0.7721 1.2538 1.0566 1.967 1.8127l15.72 14.519c0.4161 0.3399 0.5986 0.6472 1.0152 0.9868l11.495 9.3815c0.7886 0.6099 1.3916 1.0143 2.1531 1.6195 0.7489 0.5957 1.4135 1.0296 2.1603 1.6125 7.1113 5.5468 5.5862 5.5596 14.142 8.6778 2.7049 0.9863 4.9303 3.3675 8.1167 3.3675 1.4881 0 1.0281-0.7138 2.3417 0.2906 0.5522 0.4215 0.054 0.3354 1.0498 0.497 0.577 0.0929 0.5217-0.0492 1.198-0.1073 0.1092-1.365 0.0266-1.7744-0.5813-3.023-1.5369-3.1554-3.5715-4.545-3.5715-8.7603-0.8299-0.5762-1.5353-1.7327-2.1471-2.5324l-7.6877-10.157c-0.476-0.6662-0.8805-1.2159-1.4032-1.9436l-18.05-24.113c-0.2338-0.3249-0.4181-0.5858-0.652-0.911l-4.2166-5.5984c-0.3332-0.4184-0.3402-0.39-0.6863-0.8744-0.5212-0.7293-0.9719-1.2576-1.4391-1.9075l-7.0803-9.2c-0.5307-0.7363-1.2029-0.9795-1.4411-1.905 0.5906 0.3241 0.9189 0.5569 1.4886 0.949l5.2362 4.5418c0.2253 0.2246 0.3033 0.3562 0.5452 0.5674l3.278 2.9459c0.5772 0.5045 0.7305 0.532 1.3061 1.138l3.8426 3.4937c1.6481 1.3452 3.6804 3.6054 5.2842 4.7187-0.2468-0.9578-1.5752-2.561-2.1438-3.4423-2.0292-3.1437-5.6678-8.5735-8.0736-11.343-0.2826-0.3255-0.341-0.3292-0.6216-0.7157-2.9582-4.0753-11.468-9.4291-7.1296-12.194 2.0068-1.2785 4.4138-2.2386 6.4291-3.5312 1.3544-0.8688 2.6223-1.5799 3.9339-2.492 0.7305-0.508 1.2073-0.8423 1.9979-1.328 0.546-0.3349 0.4166-0.3051 0.8888-0.6646l12.02-9.518c0.7865-0.6096 1.0031-0.9367 1.7899-1.5432 0.7733-0.5957 1.0229-1.1326 1.3996-1.947-2.5323 0-7.4533 2.4638-9.8028 3.4319l-15.023 6.4032c-0.499 0.2096-0.776 0.3988-1.1815 0.5885l-2.2739 1.0404c-1.6499 0.6929-2.9282 1.3341-4.5704 2.06l-2.2605 1.0555c-1.174 0.5733-1.1853 0.739-2.2597 0.1488 0.5746-2.5575 4.0158-3.6452 5.9892-4.8932l5.086-2.8843c0.5103-0.2781 0.5536-0.3624 0.9494-0.6019l5.095-2.8745c7.8345-4.0271 11.348-7.0442 17.938-12.219 0.4781-0.376 0.4107-0.3032 0.8382-0.7167l1.7524-1.5826c0.4169-0.3642 0.4396-0.2762 0.8733-0.6806l2.508-2.3852c0.6097-0.6254 1.002-0.7967 1.6427-1.469l1.7326-1.6026c2.2008-1.7905 10.888-12.871 10.888-14.77 0-1.2541-1.1102-1.5528-1.8015-2.2107-0.665-0.6327-0.6017-2.2511-0.8209-3.228-0.9971-0.2403-1.9473-0.1624-2.842 0.2265-3.7199 1.6154-7.5444 2.8075-11.298 4.3748l-25.232 10.548c-3.7248 1.5284-9.4251 4.5653-13.519 4.5653-0.6665 0-0.8817-0.2181-1.3113-0.4539 0-4.4345 1.7409-8.5708 3.0346-12.716l2.5111-8.2732c0.3126-1.0965 0.4972-1.7765 0.8211-2.774l1.6766-5.5128c2.0573-7.9478 6.7625-17.936 2.5963-27.075-1.9448-4.2672-6.9306-5.0348-9.3707-1.4757-1.0124 1.4768-1.0323 2.9416-2.66 4.04-1.7631 1.1891-2.7091 0.0249-3.5945 3.0714l-5.0986 15.334c-4.5039 13.114-9.3124 29.074-12.119 42.498-0.4158 1.9872-0.8017 3.7033-1.1644 5.5907-0.4378 2.2776-0.3653 3.8435-1.984 4.9671-0.0614-0.7647-0.3051-1.0615-0.309-1.5379-4e-3 -0.4534 0.1482-1.2862 0.2179-1.7276 0.9876-6.2196 1.5622-12.74 2.5196-18.915 0.7194-4.6374 2.0088-9.1838 2.761-14.359 0.6502-4.4768 1.0382-9.124 1.366-13.539 0.0532-0.7135-0.0514-1.5506 2e-3 -2.2644 0.063-0.849 0.2099-0.7475 0.2266-1.8042 0.1162-7.4754 0.5124-7.504-0.4205-15.671l-2.4294-18.329c-0.9308 0.6466-1.0457 1.6622-1.2963 2.9614-0.6678 3.4664-2.5581 15.439-4.2091 17.39-1.6977 2.006-3.9497-0.9565-4.857-2.3565-1.5909-2.4537-0.3224-8.3259-0.3495-11.653-9e-3 -1.1051 0.1205-1.308 0.2024-2.0563 0.0846-0.7684-0.0266-1.3481 0.1076-2.154l1.4411-15.954-0.2408-6.5488c-0.7135-6.8221-0.2184-4.0325 0.0155-10.453 0.0359-0.9849 0.1629-0.7148 0.2241-1.5801 0.0415-0.5741-0.0442-1.2148 0.0198-1.7926l0.2003-4.5509c0-1.1458-0.3521-1.2039-0.4372-2.2667-2.189 0.6065-2.6061 4.3277-2.9691 6.2127-0.533 2.77-0.994 5.1633-1.5299 7.9314-0.5364 2.7712-0.9603 5.2155-1.4928 7.9689-0.5297 2.7366-0.9367 5.3268-1.4571 8.0067-1.2832 6.6114-2.167 13.5-3.2342 20.213-0.6605 4.154-0.7839 8.4437-1.4643 12.758l-1.3782 7.8616c-0.2142 1.3984-0.4306 2.6748-0.6982 4.0347-0.2491 1.2694-0.4254 2.7523-0.6381 4.0975-0.6567 4.1567-0.9378 8.3334-1.6196 12.596-0.2338 1.461-0.199 2.8372-0.4359 4.3065-0.2393 1.4774-0.1877 2.8523-0.3989 4.3454-0.1902 1.3492-0.2803 2.7652-0.3887 4.3553l-1.7545 21.974c-0.0243 1.973 0.1306 2.7903-1.0844 3.6342-1.2643-0.6934-1.2579-1.9853-1.8312-3.7667-4.3273-13.453-9.6864-32.786-11.043-45.653l-0.4505-9.9563c-3e-3 -1.2702-0.2289-1.4348-0.2323-2.7056-5e-3 -2.1023-0.0299-3.7113-0.5797-5.2901-1.0238-2.94-3.594-4.9138-6.6257-4.9138-1.7662 0-5.9657 1.1423-7.6247 1.8384-3.3214 1.3946-2.3743 4.0855-3.0349 6.8239l-0.6866 4.2731c-1.0305 1.866-2.7223-0.7365-3.4233-1.7003-0.5052-0.694-0.5997-0.6624-0.8924-1.5678-0.2367-0.7312-0.3203-1.2442-0.5351-1.9377-0.3542-1.1444-0.8666-2.4422-1.3167-3.62-1.3008-3.4033-3.1696-6.467-4.9257-9.6221-1.1784-2.1165-3.5681-4.3695-3.5681-6.9506 0-0.8551 2.1894-3.047 2.899-3.7916l3.9691-4.9494c0.3497-0.4895 0.5877-0.8479 0.9478-1.2831 3.4868-4.2131 7.6928-11.709 10.105-16.714 1.1712-2.4306 2.4621-5.1338 3.3648-7.8409 1.4533-4.3572 2.0988-8.9161 2.0988-13.686 0-0.7727-0.5996-3.1723-1.0929-3.1723-1.1711 0-3.142 1.3786-3.8449 2.3579-1.0676 1.487-8.3572 9.0732-9.5748 10.013-0.8846 0.6828-3.2922 3.5345-4.0643 4.6245l-5.8428 7.0844c-0.5255 0.5476-0.5557 0.5631-1.0209 1.2076-0.3898 0.5403-0.675 0.7001-1.0428 1.1845l-1.8718 2.3646c-1.1053 1.2657-2.8606 3.6589-4.0789 4.6087-0.6774 0.5283-1.8015 1.6781-2.7528 1.6781z"/>
<path d="m355.11 152.1c-1.0545-2.0662-0.6928-2.1772-0.2184-5.2114 0.1851-1.1854 0.3172-2.261 0.5289-3.5304l3.1306-17.148c0.3049-1.8994 1.0674-4.4945 2.538-1.8366 0.3833 0.6924 0.6732 1.0877 1.0072 1.6744l3.8508 6.658c2.2625 3.87 2.3196 4.1213-1.0568 8.0074-0.3758 0.4323-0.397 0.565-0.7677 1.0171-0.3552 0.4333-0.4388 0.6177-0.7664 1.0181-0.58 0.7092-1.0449 1.2065-1.6001 1.9668-0.3622 0.4957-0.2922 0.4253-0.6918 0.869l-3.1675 3.9664c-1.6505 1.9-0.4902 1.4067-2.7868 2.549zm32.782 15.409c-6.6781 0-2.0527-14.532-1.159-16.838 2.0317-5.238 6.8794-10.183 10.031-14.525 2.0942-2.8856 5.7878-5.3465 9.4863-5.3465 0.7187 0 0.9079 1.1786 0.681 2.2848-0.6954 3.3816-5.3939 14.057-7.2375 17.882-1.549 3.2154-3.1696 6.1766-5.0263 9.0644l-4.4231 6.2905c-0.3846 0.4555-1.6033 1.1875-2.3526 1.1875zm-10.49-46.906c0-3.8058 2.596-7.1892 4.4579-10.107 0.3619-0.5669 0.5485-0.7915 0.9172-1.3152l8.1192-10.843c0.5553-0.5816 0.6126-0.8077 1.0919-1.3604l7.4311-8.8368c2.0021-2.2921 3.1546-3.8709 6.3939-5.3806 2.2326-1.0406 5.1985-2.0389 8.0873-2.0389 0.0464 0.0924 0.4367 0.88 0.4367 0.9068 0 1.0887-1.9835 6.0994-2.4747 7.1778-0.2638 0.5791-0.5325 1.1652-0.8077 1.6548l-4.4946 7.5765c-1.9886 3.0168-8.2364 11.467-10.761 13.542-2.0341 1.6722-6.9917 4.9313-8.4009 6.2456-1.6226 1.513-3.3704 3.3543-6.2769 3.4622-0.9827 0.0367-3.7197 0.5382-3.7197-0.6844zm18.358 67.3c2.999-0.7245 5.0082-2.9253 7.6412-4.5407 2.8704-1.76 3.7932-2.5295 6.2173-4.4302 2.2225-1.7434 4.9703-4.7747 6.958-6.8352 2.9313-3.0388 2.0183-2.2586 4.7924-4.5482l1.7101-1.3995c-0.7571 3.369-3.9199 6.3756 0.2027 5.8765 2.3379-0.2832 5.6453-2.1117 7.8838-1.5708 0 2.0764-0.8794 3.1592-1.5604 4.9535l-2.0062 4.7179c-0.1869 0.414-0.3286 0.6685-0.5428 1.0234-1.9445 3.2194-2.3772 4.1832-5.1273 6.6934-0.5537 0.505-1.2292 1.1246-1.0113 2.2794 0.1652 0.8752 0.921 1.107 1.207 2.1706 0.5963 2.2211-2.8932 6.0917 0.1556 5.232 4.674-1.3173 6.603 0.8069 10.148-0.1547 2.3926-0.6495 13.769-7.2722 17.387-9.1652l4.5178-2.1141c1.4876-0.6983 3.2746-1.1626 4.8072-1.8138 4.3508-1.8485 14.076-4.485 19.54-6.7059 0.8875-0.3608 1.5297-0.5532 2.4043-0.9067 10.516-4.2458 19.61-8.0377 29.779-13.311 6.3591-3.2981 12.647-7.1625 18.34-11.576l6.3921-5.156c0.4561-0.3752 0.4998-0.3279 0.9685-0.8085 0.6035-0.6199 1.2393-0.9432 1.6923-1.6444-2.5962 0-1.4641-0.2146-4 0.8377-1.3629 0.5655-2.6342 1.1027-3.8995 1.6222l-19.109 7.8326c-1.8839 0.7802-1.8751 1.0374-4.4624 1.0374 0.7922-3.5275 0.7481-2.6242 4.109-4.803 2.383-1.5451 4.6394-2.4618 7.5186-4.4412 1.1773-0.8096 2.3546-1.7321 3.667-2.3164 0.6706-0.2992 1.7687-0.3067 2.2901-0.838 0.7783-0.7916-0.453-0.8765-1.3281-0.6653-2.0464 0.494-4.7467 1.5662-6.7759 2.2736-3.7104 1.294-2.3374 0.82-4.8911 0.82 0.1577-0.7028 0.2772-1.0275 0.5744-1.6701 0.7488-1.6197 2.6825-2.0169 4.1042-2.9959 0.9727-0.6693 1.8191-1.2199 2.69-1.9693 1.0245-0.8824 1.587-1.4053 2.5199-2.3731 2.8802-2.986 6.5023-8.323 6.5023-12.745-2.0782 0-2.4383 0.1743-3.961 0.6512-9.6923 3.0345-19.417 5.5564-29.012 8.8955-1.1732 0.4081-2.4208 0.9137-3.5529 1.3018l-17.319 6.2897c-1.5501 0.5339-2.049 1.0989-3.6347 0.3102 0.1125-1.3984 0.7671-1.4546 1.4724-2.326 1.7689-2.1869 3.9184-4.1648 5.6822-6.3449 0.3983-0.4919 0.4159-0.6153 0.8776-1.1287 0.4309-0.4777 0.4758-0.6431 0.8761-1.1315 3.9332-4.8017 7.539-9.9029 11.11-14.993l4.0591-5.9889c0.5751-0.7917 1.0253-1.5702 1.5805-2.4398 0.5785-0.907 1.0418-1.5052 1.6175-2.4017 2.1027-3.2749 4.1022-6.3797 6.207-9.6529 2.3392-3.6377 3.7323-7.2482 4.4625-11.688 0.7177-4.3652 0.5086-10.24-1.4426-14.194-1.5925-3.2261-4.3338-4.9345-6.7318-7.2961l-0.6221-0.7143c-0.0282-0.034-0.0741-0.094-0.0989-0.1247l-0.2003-0.2452c0.414-1.8424 2.3198-3.7148 1.5095-5.637-0.5919-1.4043-2.7689-2.7524-4.3402-3.2111-5.857-1.7083-18.807 3.2419-24.181 5.5412l-12.694 6.3261c-3.9664 2.1756-7.7065 4.7803-11.278 7.5685-0.4447 0.3472-0.5614 0.4272-0.9798 0.7962l-3.2003 2.7998c-2.254 1.749-5.6464 5.4031-6.9812 8.1712-1.8689 3.8738-2.3283 7.5418-2.3283 13.221 2.0578 1.4289 2.3683 0.7542 5.1912 0.171 2.5086-0.5189 5.8743-1.0199 8.0524-2.5278 0.7548-0.5219 1.2272-1.025 1.9621-1.5914 0.7558-0.5829 1.3278-0.9841 2.0601-1.4899 2.0661-1.4281 4.3379-2.9413 6.5558-4.0793l11.731-5.9654c1.3725-0.6876 1.0173-0.7839 2.6943-0.3792 0.6338 2.8195-1.4225 7.0436-2.4349 9.712l-3.9029 8.6431c-0.2205 0.4565-0.4301 0.9107-0.6523 1.363-2.5163 5.1149-5.4629 9.9591-8.5274 14.725l-29.548 46.181c-1.0637 1.6575-2.4964 3.2312-4.1084 4.3507 0.2204-0.9817 1.2932-2.902 1.7504-3.8505 1.2269-2.5455 2.3417-5.1405 3.9295-7.482 0.373-0.55 0.8335-1.0687 1.2238-1.6773 0.4179-0.6506 0.6544-1.1739 1.0547-1.8523 2.412-4.085 2.1508-8.948 3.4851-13.608 0.4822-1.6829 0.8528-2.8578 1.3683-4.473 1.6836-5.2722 2.7463-7.925-0.8836-12.962l-1.836-2.4015c-1.1887-1.5705-2.8237-2.9526-4.2435-4.211-1.897-1.6818-4.2457-2.7663-6.5888-3.5925-0.8188-0.2885-1.2782-0.5179-1.9298-0.9453-0.294-0.1921-0.5224-0.334-0.7906-0.539-1.6299-1.2443 0.491-2.8351 1.5511-3.7552 2.3118-2.0073 4.572-3.9584 6.5516-6.35 4.4347-5.3557 6.4977-15.153 0.7677-21.072-3.8601-3.9873-9.088-6.9709-14.083-9.192-3.5-1.5569-10.51-4.195-14.454-3.5128-2.2132 0.3833-3.0475 1.8484-4.3555 3.1889-0.4922 0.5045-0.8247 0.8498-1.3123 1.3586-1.7055 1.7803-3.7184 3.2726-5.6471 4.7952-0.3524 0.2786-0.3999 0.3723-0.7086 0.6244l-2.1722 1.8267c-0.8993 0.8834-1.604 1.7332-2.5031 2.6166-0.5253 0.516-0.9398 0.6402-1.3939 1.2737l-7.2444 8.3514c-2.8787 3.3152-5.3289 7.1285-7.7034 10.821-1.0641 1.6537-2.8875 5.0875-4.3712 6.1179 0.017-0.7871 0.2898-2.5332 0.3866-3.2248 0.1758-1.2531 0.1482-2.2677 0.3219-3.5183 0.2935-2.1114 0.6513-4.5507 0.8291-6.8451 0.2959-3.8315 1.538-9.45-3.5121-10.65-3.4657-0.8232-6.0958 0.887-9.3862 1.1294-1.1584 0.0854-1.9375 0.5388-2.4137 1.3497-1.0424 1.7771-0.4933 4.4589-3.6539 7.7685l-1.7504 2.0375c-1.4837 1.5274-3.1107 3.0564-4.3861 4.7425l-2.7189 3.0725c-0.6498 0.8037-1.1028 1.0673-1.7799 2.007-0.9556 1.3264-2.4829 2.799-3.5769 3.9956l-13.73 14.316c-1.2101 0.9437-2.0276 1.7402-2.7116 3.0805 0.3105 0.6086 0.3998 1.0567 0.9264 1.5323 1.3095 1.1829 2.8671 2.1831 4.5614 2.7483 2.6787 0.8931 5.6005 0.9911 8.5019 0.2532 3.0216-0.7681 3.9667-1.741 6.0606-3.6864l3.825-3.5114c0.6381-0.6774 0.5421-0.9354 1.6952-0.9619 0.1442 1.7932 0.6151 1.5983 0.2046 3.6101-0.852 4.1773-1.4411 6.498-2.1714 11.119l-4.6151 31.018c-0.3753 2.3812-1.0898 5.0217-1.0676 7.7315 0.048 5.6372-1.9683 5.0864-2.404 6.5713-0.2888 0.9873 0.944 1.7263 0.6097 4.0298l-0.3908 4.5806c2.6286 1.825 2.6229 3.5577 2.6229 7.9312 1.4558 0.7989 1.0532 0.1268 2.4037 0.4528 0 3.1547 1.0857 6.525 0.5258 9.836-0.2821 1.6679-0.3033 8.8529-0.3072 10.559-5e-3 1.9644 0.2308 3.141 0.2251 5.2184-8e-3 2.9841-0.6621 6.0376-0.6623 10.19 0 2.0423 0.2186 3.422 0.2186 5.2114h0.2186c0-0.8714 0.4234-1.1345 0.6092-1.8609 0.2027-0.793 0.1952-1.287 0.3199-2.1609 1.342-9.3732 4.0041-20.055 6.1954-29.152 1.3353-5.5414 3.4509-10.018 4.3699-15.864 0.2953-1.8746 1.1977-6.7699 2.1337-7.9847 1.0803-1.4014 2.3069 0.3195 3.549 0.0762 3.3632-0.6586 3.1229-3.3393 5.7282 1.0197 1.777 2.9722 3.8456 5.967 6.9615 7.7382 5.8787 3.3415 10.835 1.3944 16.252-1.8855l12.53-6.9505c0.7-0.3621 0.8714-0.554 1.5242-0.9118 0.6118-0.3354 1.0031-0.4738 1.5893-0.845l4.674-2.6319c1.9995-1.2108 1.4505-1.2865 3.2824-1.1284-0.0255 1.1958-0.2744 1.0955-0.9277 1.7571l-5.1528 5.7609c-0.7711 1.0183-1.8815 1.8788-2.7184 2.8468-0.3513 0.4066-0.2821 0.4074-0.5622 0.7764-0.3092 0.4066-0.4076 0.4277-0.6923 0.8685z"/>
<path d="m271.19 161.61c0.6249 5.1785-0.2024 8.2625 7.2287 9.4997 0.9471 0.1579 3.7519 0.7687 4.5062 0.663 9.8237-1.3735 11.719-3.9289 20.994-6.3495 4.9711-1.2977 5.4087-0.7405 9.5021-1.4781 5.2021-0.9378 10.129-2.587 15.2-3.9544 0.8733-0.2352 1.3136-0.3262 1.5695-1.3181-0.7592-0.6578-11.969 1.1324-15.08 1.1324-0.2979-1.2908-0.4987-0.9373 1.0044-3.4908l3.8035-7.8391c-2.3469 0-4.2702-0.8505-7.9174-0.2781l-6.0622 0.5126c-1.3887 0.0168-1.8064 0.1903-3.0692 0.2168l-6.0286 0.5473c-0.8237 0.1477-2.2563 0.2612-2.9499 0.3399-1.1978 0.1367-2.0857 0.1975-3.2618 0.2438l-2.9675 0.3228c-3.4463 0.611-12.442 0.8909-14.591 2.0921-1.5423 0.862-2.5443 2.7071-2.5443 4.3871 0 1.446 0.4834 3.2529 0.6639 4.7506z"/>
</g>
</g>
</svg>
